<?xml version="1.0" encoding="UTF-8"?><svg id="Layer_1" xmlns="http://www.w3.org/2000/svg" viewBox="0 0 889.49 642.66"><defs><style>.cls-1{fill:#014652;}.cls-2{fill:#3a8d93;}.cls-3{font-family:DIN2014-Demi, 'DIN 2014';font-size:139.36px;font-weight:300;}.cls-3,.cls-4{fill:#388b91;}.cls-5{fill:#0b2d3a;}.cls-6{fill:#014550;}.cls-7{fill:#092431;}.cls-8{fill:#113644;}.cls-9{fill:#072736;}.cls-10{fill:#227c85;}.cls-11{letter-spacing:0em;}.cls-12{fill:#0d323f;}</style></defs><path class="cls-1" d="M140.44,29.15c44.32-36.39,118.05-36,162,1,3.58,3.01,6.88,6.5,10,10,5.88,6.6,13.25,17.57,16.87,25.63,4.22,9.38,5.46,19.84,9.13,29.37.05.32-.04.67,0,1l1.04,1.42c18.05,5.21,25.79,24.86,25.58,42.25-.04,3.64-2.72,14.07-2.39,15.72s8.2,9.21,9.76,11.61c14.49,22.19,17.44,60.56-9,75-2.34.94-5.24,3.01-5.58,3.02-2.66.08-4.11-1.91-8.42-.02-2.6,1.14-4.62,4.76-7.07,6.43-6.23,4.25-13.66,6.69-19.67,11.02-.04.25.74.48.73.55-.04,1,.03,2,0,3,0,.13-1.12.92-1.02,2.37.66,9.2,13.63,23.78,17.1,32.63l.92-1c1.99.5,2.1,2.75,3,4-2.17.61.24,2.82.78,3.72,12.35,20.62,14.61,29.99,13.22,54.28-.02.33.01.67,0,1-3.77,11.66-13.16,34.46-26.74,36.76-3.61.61-12.04.72-15.26-.76-6.77-3.11-10.45-27.4-13.25-35.25-3.15-8.79-8.49-19.06-13.75-26.75-.81-1.19-2.65-6.46-5.04-4.54l-18.96,37.54c-4.18,6.69-31.18,47.11-36,48-.07.01.15-1.18-.99-1l-1.01,3c-.31.36-.75.66-1,1-1.98.03-2.81,1.22-3.99,2.51-7.56,8.31-15.3,16.35-23.01,24.49-10.24,9.7-21.47,20.26-33,30l-7.55,4.95-1.02,3.07c31,24.49,74.23,39.79,85.29,81.81.46,1.74-.61,3.76,2.28,3.17,1.49,9.74.75,19.77-6,27-16.48,17.66-29.3,16.17-50.77,22.73-20.12,6.15-36.26,16.54-57.74,19.31-1.87.24-4.06-1.27-3.5,1.96-6.9.66-11.07.7-18,0l-26.97-8.53-17.03-9.47c-2.34-2.03-6.8-6.61-9-9-3.31-7.26-8.44-13.53-11.48-21.02-6.11-15.03-7.27-32.42-6.56-48.52.94-21.48,8.85-37.98-3.96-57.46-6.29-15.25-13.56-27.55-19-44-4.68-14.15-9.01-29.19-11-44-1.79-13.31-1.84-28.06-1.98-41.51-.02-1.69.64-4.45-1.02-5.49.04-.66-.05-1.34,0-2,3.11.55,1.85-1.56,1.99-3.47,2.53-34.03,12.7-67.39,28.62-97.42,1.9-3.58,5.51-6.63,5.39-11.11l6-10c2.59-.74,4.79-4.82,6.42-7.08,3.6-4.99,7.02-10.15,10.57-15.17l22.65-26.73c-2.35-7.81-7.08-14.9-8.63-23.02-3.67-19.19,1.2-38.9,14-53,2.85-1.83,8.49-3.45,9-7,1.18-.63,3.47-.34,4.49-2.01.98-2.47.81-5.53,1.51-7.99,2.7.58,1.92-1.37,2.48-2.97,5.16-14.73,11.42-29.01,21.52-41.03,3.77-4.48,9.48-10.29,14-14ZM207.44,25.15c-1.98.13-4.03-.18-6,0-21.25,1.98-44.6,14.82-58.04,31.46-1.2,1.49-2.35,2.25-1.96,4.54-4.1,5.32-5.07,7.06-8,13-2.42-.53-2.07,1.23-2.82,2.63-1.43,2.69-9.53,17.23-3.78,17.32,1.62.03,3.61-1.13,6.06-1.01,5.7.28,12.89,4.87,16.54,9.06,19.87,22.8,13.77,82.28-17.73,93.77-4.42,1.61-8.91,1.74-13.27,3.23-3.14-.58-6.61-.5-9-1-3.32-.7-6.05-1.9-9.02-3.48-2.71-1.44-8.8-7.14-10.96-6.07-34.23,34.3-61.83,77.79-72.54,125.54-12.56,55.98-7.11,109.18,20.34,159.68,10.81,19.89,16.52,21.18,15.21,46.87-1.95,38.32-11.3,76.05,27.63,101.28,36.84,23.87,64.14,5.42,98.81-6.84,18.41-6.51,51.85-9.21,55.26-32.74,4.25-29.38-34.48-55.67-56.72-67.76-17.11-9.3-36.06-17.96-55.02-22.49l.48-3c72.09-54.94,147.16-123.56,164.51-216.98-34.84-.59-74.28-20.26-75.99-59,1.61-.09,2.34-.36,3.47,1.02,1.29,1.58,4.56,11.7,6.73,15.27,20.74,34.25,77.43,38.7,109.82,20.22,4.79-2.73,14.68-8.91,3.73-10.33-9.4,3.35-18.29,8.46-27.97,11.09-15.24,4.15-29.74,5.3-44.46-1.1s-26.56-22.33-24.06-39.42c.5-3.38,2.87-11.22,6.74-11.76v17.5c0,7.53,14.18,21.01,21.01,23.99,25.06,10.9,43.02-3.01,64.99-9.97,14.72-4.67,18.77,12.17,33.02,1.01,22.97-18,5.71-59.92-12.01-76.03-4.88-4.44-23.35-14.94-24.6-19.42-.5-1.79-.37-1.87,1.08-3.05l6.5,3.98c-1.41-6.79-5.88-13.02-10.03-18.46-35.53-46.48-112.31-55.68-159.98-23.06-1.44.98-3.14,1.04-2.98,3.52h-1c-.14-.26.14-.74,0-1-1.29-2.41-2-3.91-4-5.98,12.82-8.71,28.83-16.42,44-20.02,24.3-5.77,54.54-3.42,78,5,5.03,1.81,12.94,5.31,17.68,7.82,5.16,2.74,11.07,8.11,16.32,10.18.39.15.54,2.44,1.26-.28,1.54-5.89-2.78-13.48-5.26-18.72-6.2-13.14-15.53-25.59-28-33-8.66-6.92-26.94-17.05-38-15-.28.05-.71.03-1,0v-1c-8.73-3.45-21.02-3.61-30.55-3.06-1.86.11-3.75-.22-4.45,2.06ZM101.45,180.13c6.23,3.4,8.36,4.39,14.49.01,15.59-11.13,18.64-55.9,5.04-69.03-3.91-3.77-11.04-4.81-14.53.02,19.74,9.92,16.54,52.6,1.02,64.54-1.99,1.53-2.88,1.49-4.61,2.39-1.02.53-1.9-.53-1.41,2.07Z"/><path class="cls-8" d="M303.44,30.15h-1c-43.95-37-117.68-37.39-162-1h-1c45.1-39.44,119.04-38.62,164,1Z"/><path class="cls-8" d="M33.44,488.15c12.8,19.48,4.9,35.98,3.96,57.46-.71,16.1.45,33.49,6.56,48.52,3.04,7.49,8.17,13.76,11.48,21.02-17.09-18.58-21.04-43.91-20.04-68.54.9-22.14,7.15-36.38-1.96-58.46Z"/><path class="cls-12" d="M238.44,598.15c1.79.21-.81,2.81-1.2,3.3-12.92,16.22-41.44,17.83-60.33,24.67-19.18,6.95-28.77,13.94-50.47,16.03-.56-3.22,1.63-1.72,3.5-1.96,21.47-2.77,37.61-13.16,57.74-19.31,21.47-6.57,34.28-5.08,50.77-22.73Z"/><path class="cls-12" d="M36.44,239.15c.11,4.48-3.49,7.52-5.39,11.11-15.92,30.03-26.09,63.4-28.62,97.42-.14,1.91,1.12,4.02-1.99,3.47,2.72-39.6,14.37-78.62,36-112Z"/><path class="cls-5" d="M315.44,399.15v1c-10.27-5.48-10.4-22.97-13.97-33.53-2.76-8.16-9.55-22.08-14.03-29.47h1c5.26,7.69,10.6,17.96,13.75,26.75,2.81,7.84,6.48,32.13,13.25,35.25Z"/><path class="cls-5" d="M373.44,167.15c14.35,22.5,20.09,62.84-10,75,26.44-14.44,23.49-52.81,9-75h1Z"/><path class="cls-12" d="M338.44,96.15c25.55,6.61,32.29,36.35,26.21,59.32.17,1.73,7.31,9.37,8.79,11.68h-1c-1.57-2.4-9.45-10.03-9.76-11.61s2.34-12.08,2.39-15.72c.21-17.39-7.53-37.05-25.58-42.25l-1.04-1.42Z"/><path class="cls-5" d="M3.44,400.15h-1c-2.32-17.33-2.99-29.53-2-47,1.66,1.04,1,3.8,1.02,5.49.14,13.45.19,28.21,1.98,41.51Z"/><path class="cls-5" d="M357.44,362.15c1.39-24.29-.87-33.66-13.22-54.28-.54-.9-2.95-3.11-.78-3.72,11.95,16.47,17.66,32.9,16.02,53.52-.14,1.77-.35,3.44-2.02,4.48Z"/><path class="cls-5" d="M313.44,40.15c16.17,17.73,21.29,31.33,25,55-3.67-9.54-4.91-19.99-9.13-29.37-3.62-8.05-10.99-19.02-16.87-25.63h1Z"/><path class="cls-9" d="M87.44,104.15c-12.8,14.1-17.67,33.81-14,53h-1c-3.52-17.61-1.28-42.53,15-53,2.8-3.09,4.64-4.67,9-7-.51,3.55-6.15,5.17-9,7Z"/><path class="cls-12" d="M14.44,444.15l-1,1c-5.53-16.4-8.68-27.62-11-45h1c1.99,14.81,6.32,29.85,11,44Z"/><path class="cls-9" d="M315.44,400.15v-1c3.21,1.48,11.65,1.37,15.26.76,13.58-2.3,22.97-25.1,26.74-36.76-.38,9.59-6.11,21.15-12.58,28.92-7.14,8.56-19.01,13.64-29.42,8.08Z"/><path class="cls-5" d="M108.44,642.15c-17.86-1.81-30.45-6.25-44-18l17.03,9.47,26.97,8.53Z"/><path class="cls-5" d="M126.44,43.15c-10.1,12.02-16.36,26.3-21.52,41.03-.56,1.6.22,3.55-2.48,2.97,5.29-18.37,11.34-30.7,24-45v1Z"/><path class="cls-5" d="M33.44,488.15c-10.19-15.5-14.08-25.44-20-43l1-1c5.44,16.45,12.71,28.75,19,44Z"/><path class="cls-5" d="M340.44,300.15l-.92,1c-3.47-8.85-16.44-23.43-17.1-32.63-.1-1.45,1.01-2.24,1.02-2.37l17,34Z"/><path class="cls-5" d="M165.44,478.15c-2.1,1.77-4.16,3.55-6.53,4.98v3.05c7.4,5.02,14.55,10.56,21.91,15.58,25.67,17.5,58.33,34.9,63.61,69.39-2.9.6-1.83-1.43-2.28-3.17-11.06-42.03-54.29-57.32-85.29-81.81l1.02-3.07,7.55-4.95Z"/><path class="cls-12" d="M73.44,157.15c1.55,8.12,6.28,15.21,8.63,23.02l-22.65,26.73c-3.55,5.02-6.96,10.18-10.57,15.17-1.63,2.26-3.83,6.34-6.42,7.08,7.59-12.06,15.95-23.75,25.95-33.59,1.84-5.03,13-12.23,11.85-17.68-.42-1.98-5.05-9.04-6.25-12.77-.95-2.95-.99-5.2-1.55-7.96h1Z"/><path class="cls-9" d="M288.44,337.15h-1c-.34-.56-2.9-3.92-3.99-3l-7.74,17.73c-2.7,1.64-2.37,4.02-3.72,6.32-2.37,4.05-5.08,7.98-7.55,11.95l18.96-37.54c2.39-1.93,4.22,3.35,5.04,4.54Z"/><path class="cls-7" d="M349.44,245.15c-5.66,9.06-16.42,13.87-26,18,0-.07-.78-.3-.73-.55,6.01-4.33,13.44-6.77,19.67-11.02,2.45-1.67,4.47-5.29,7.07-6.43Z"/><path class="cls-5" d="M225.44,421.15c-7.47,9.89-18.07,18.54-27,27,7.72-8.14,15.45-16.18,23.01-24.49,1.18-1.29,2.01-2.48,3.99-2.51Z"/><path class="cls-7" d="M126.44,43.15v-1c4.09-4.62,8.35-8.94,13-13h1c-4.52,3.71-10.23,9.52-14,14Z"/><path class="cls-7" d="M303.44,30.15c3.6,3.17,6.76,6.44,10,10h-1c-3.12-3.5-6.42-6.99-10-10h1Z"/><path class="cls-5" d="M228.44,418.15c-.28,1.07-1.51,1.44-2,2l1.01-3c1.14-.18.92,1.01.99,1Z"/><path class="cls-4" d="M162.44,98.15c-.16-2.48,1.55-2.54,2.98-3.52,47.67-32.62,124.44-23.42,159.98,23.06,4.16,5.44,8.63,11.67,10.03,18.46l-6.5-3.98c-1.46,1.17-1.58,1.25-1.08,3.05,1.25,4.47,19.72,14.98,24.6,19.42,17.72,16.11,34.98,58.04,12.01,76.03-14.24,11.16-18.3-5.68-33.02-1.01-21.97,6.97-39.92,20.88-64.99,9.97-6.84-2.97-21.01-16.45-21.01-23.99v-17.5c-3.87.54-6.24,8.38-6.74,11.76-2.5,17.09,8.95,32.85,24.06,39.42s29.23,5.25,44.46,1.1c9.68-2.63,18.57-7.74,27.97-11.09,10.95,1.42,1.05,7.59-3.73,10.33-32.39,18.48-89.08,14.04-109.82-20.22-2.16-3.57-5.44-13.69-6.73-15.27-1.13-1.38-1.86-1.12-3.47-1.02,1.71,38.74,41.15,58.42,75.99,59-17.35,93.42-92.42,162.03-164.51,216.98l-.48,3c18.96,4.53,37.91,13.19,55.02,22.49,22.24,12.1,60.97,38.38,56.72,67.76-3.41,23.53-36.84,26.23-55.26,32.74-34.66,12.26-61.97,30.72-98.81,6.84-38.94-25.23-29.58-62.97-27.63-101.28,1.31-25.69-4.4-26.98-15.21-46.87-27.45-50.5-32.91-103.7-20.34-159.68,10.71-47.75,38.31-91.24,72.54-125.54,2.15-1.07,8.25,4.62,10.96,6.07,2.97,1.58,5.7,2.79,9.02,3.48-1.15,5.27,4.57,1.23,8.27,2.05.28.06,3.88,3.6,4.26,3.69,2.2.53,11.55.59,14,.29,4.95-.6,14.62-4.01,16.47-9.03,5.26-3.7,7.37-8,11-13,.81-1.12,2.28-1.4,4.17-5.33,8.95-18.66,8.7-46.68,3-66.31-.41-1.42-1.99-1.32-2.14-2.06-1.02-4.89-.57-6.9-6.03-10.3ZM243.2,134.37c-17.2,2.55-20.92,23.49-1.26,21.79s17.94-24.27,1.26-21.79ZM322.16,175.36c-4.12.93-10.79,9.49-6.78,12.36,4.91,3.52,6.01-5.66,8.77-6.44,3.46-1.06,6.51,4.14,9.29.35-.5-5.42-6.46-7.37-11.29-6.27ZM362.45,180.15c.49-2.73-1.57-5.32-4.46-5.05l-6.54,6.53c3.61,4.24,6.05-3.39,11-1.49ZM166.44,309.65c-1.13-7.25,0-20.02,0-28,0-.35-1.26-1.53-1.02-2.49-5.05-3.52-7.82,14.37-8.02,17.45-2.13,32.8,26.51,52.27,28.07,82.99.44,8.75-1.77,21.88-7.04,29.04-20.91,28.46-51.55-6.37-63.42-25.58-19.59-31.7-25.33-70.63-16.58-106.92-1.36-.06-1.94-.33-3.04.66-2.05,1.85-5.63,11.96-6.66,15.12-9.52,29.02-7.93,59.83,6.54,86.88,13.66,25.55,59.4,73.44,87.14,40.8,20.72-24.38,14.22-57.1-.17-82.78-4.05-7.23-14.62-19.56-15.81-27.19Z"/><path class="cls-2" d="M101.45,180.13c-.49-2.6.39-1.54,1.41-2.07,1.73-.9,2.61-.86,4.61-2.39,15.52-11.93,18.71-54.61-1.02-64.54,3.5-4.83,10.62-3.79,14.53-.02,13.6,13.12,10.55,57.9-5.04,69.03-6.13,4.38-8.26,3.39-14.49-.01Z"/><path class="cls-10" d="M162.44,98.15c5.46,3.39,5,5.4,6.03,10.3.16.75,1.73.64,2.14,2.06,5.7,19.63,5.95,47.64-3,66.31-1.89,3.93-3.36,4.21-4.17,5.33,2.38-6.74,5.79-13.1,7.34-20.16,5.32-24.14,1.78-42.46-9.34-63.84h1Z"/><path class="cls-9" d="M279.44,75.15v1c-23.46-8.42-53.7-10.77-78-5v-1c27.85-6.25,51.28-4.66,78,5Z"/><path class="cls-8" d="M150.44,102.15c23.99,28.71,12.69,93.53-30,98-.63-.15-1.38-.88-2-1,4.36-1.48,8.86-1.61,13.27-3.23,31.5-11.49,37.59-70.98,17.73-93.77h1Z"/><path class="cls-10" d="M152.44,195.15c-1.85,5.02-11.52,8.43-16.47,9.03-2.45.3-11.8.24-14-.29-.38-.09-3.99-3.63-4.26-3.69-3.7-.81-9.42,3.22-8.27-2.05,2.39.5,5.86.42,9,1,.62.12,1.37.85,2,1,10.27,2.47,23.08,1.27,32-5Z"/><path class="cls-12" d="M281.44,42.15c-6.48-3.85-15.63-8.21-22.75-10.75-4.99-1.78-10.11-3.04-15.25-4.25,11.06-2.05,29.34,8.08,38,15Z"/><path class="cls-5" d="M133.44,74.15c-1.24,2.5-8.26,16.7-6.99,17.99,9.7-2.96,18.05,2.88,23.99,10.01h-1c-3.65-4.19-10.84-8.78-16.54-9.06-2.46-.12-4.45,1.03-6.06,1.01-5.74-.09,2.35-14.63,3.78-17.32.75-1.4.4-3.16,2.82-2.63Z"/><path class="cls-8" d="M201.44,25.15c-7.13,3.18-14.99,4.35-22.26,7.24-14.92,5.92-28.08,16.25-37.74,28.76-.39-2.28.76-3.05,1.96-4.54,13.44-16.65,36.79-29.49,58.04-31.46Z"/><path class="cls-5" d="M201.44,70.15v1c-15.17,3.6-31.18,11.31-44,20.02,2,2.07,2.71,3.58,4,5.98l-4.52-4.98c-.47-1.09.38-2.38,1.23-3.08,10.54-8.68,29.98-15.95,43.29-18.94Z"/><path class="cls-7" d="M242.44,26.15h-1c-11.96-1.96-22.06-1.76-34-1,.7-2.28,2.58-1.95,4.45-2.06,9.54-.55,21.82-.39,30.55,3.06Z"/><path class="cls-8" d="M309.44,75.15c2.48,5.25,6.8,12.83,5.26,18.72-.71,2.72-.87.43-1.26.28,1.15-1.09.05-1.67,0-2-.82-5.57-2.68-11.82-5-17h1Z"/><path class="cls-5" d="M279.44,75.15c8.31,3,17.29,6.02,23.8,11.92l10.2,5.08c.05.33,1.15.91,0,2-5.25-2.07-11.17-7.44-16.32-10.18-4.74-2.51-12.64-6.02-17.68-7.82v-1Z"/><path class="cls-9" d="M281.44,42.15c12.47,7.41,21.8,19.86,28,33h-1c-5.82-12.96-16.03-24.23-27-33Z"/><path class="cls-12" d="M242.44,27.15c-.65-.08-1.1-.28-1-1h1v1Z"/><path class="cls-6" d="M166.44,309.65c1.19,7.63,11.76,19.97,15.81,27.19,14.38,25.67,20.89,58.39.17,82.78-27.74,32.64-73.48-15.25-87.14-40.8-14.47-27.06-16.06-57.86-6.54-86.88,1.04-3.16,4.61-13.27,6.66-15.12,1.1-.99,1.68-.72,3.04-.66-8.74,36.28-3.01,75.22,16.58,106.92,11.87,19.21,42.51,54.04,63.42,25.58,5.26-7.16,7.48-20.3,7.04-29.04-1.56-30.72-30.19-50.19-28.07-82.99.2-3.08,2.96-20.97,8.02-17.45-.25.96,1.02,2.13,1.02,2.49,0,7.98-1.13,20.75,0,28Z"/><path class="cls-6" d="M243.2,134.37c16.68-2.47,18.22,20.12-1.26,21.79s-15.94-19.24,1.26-21.79Z"/><path class="cls-6" d="M322.16,175.36c4.83-1.09,10.79.85,11.29,6.27-2.79,3.79-5.83-1.41-9.29-.35-2.76.79-3.86,9.96-8.77,6.44-4.01-2.87,2.66-11.43,6.78-12.36Z"/><path class="cls-6" d="M362.45,180.15c-4.95-1.9-7.39,5.73-11,1.49l6.54-6.53c2.88-.28,4.94,2.32,4.46,5.05Z"/><text class="cls-3" transform="translate(391.83 362.15)"><tspan x="0" y="0">Manatee</tspan><tspan class="cls-11" x="0" y="126.4">C</tspan><tspan x="81.11" y="126.4">aller</tspan></text></svg>