<?xml version="1.0" encoding="UTF-8"?><svg id="Layer_1" xmlns="http://www.w3.org/2000/svg" viewBox="0 0 850.44 642.66"><defs><style>.cls-1{fill:#014652;}.cls-2{fill:#10313f;}.cls-3{fill:#014753;}.cls-4{fill:#3a8d93;}.cls-5{fill:#0b2d3a;}.cls-6{fill:#073442;}.cls-7{fill:#014550;}.cls-8{fill:#034753;}.cls-9{fill:#fdfef9;}.cls-10{fill:#001a2a;}.cls-11{fill:#092431;}.cls-12{fill:#f7f7eb;}.cls-13{fill:#004652;}.cls-14{fill:#024652;}.cls-15{fill:#f1f2e6;}.cls-16{fill:#113644;}.cls-17{fill:#fbf8e9;}.cls-18{fill:#072736;}.cls-19{fill:#034954;}.cls-20{fill:#014752;}.cls-21{fill:#227c85;}.cls-22{fill:#1e404c;}.cls-23{fill:#00091c;}.cls-24{fill:#fef9e8;}.cls-25{fill:#388b91;}.cls-26{fill:#0d323f;}</style></defs><path class="cls-1" d="M140.44,29.15c44.32-36.39,118.05-36,162,1,3.58,3.01,6.88,6.5,10,10,5.88,6.6,13.25,17.57,16.87,25.63,4.22,9.38,5.46,19.84,9.13,29.37.05.32-.04.67,0,1l1.04,1.42c18.05,5.21,25.79,24.86,25.58,42.25-.04,3.64-2.72,14.07-2.39,15.72s8.2,9.21,9.76,11.61c14.49,22.19,17.44,60.56-9,75-2.34.94-5.24,3.01-5.58,3.02-2.66.08-4.11-1.91-8.42-.02-2.6,1.14-4.62,4.76-7.07,6.43-6.23,4.25-13.66,6.69-19.67,11.02-.04.25.74.48.73.55-.04,1,.03,2,0,3,0,.13-1.12.92-1.02,2.37.66,9.2,13.63,23.78,17.1,32.63l.92-1c1.99.5,2.1,2.75,3,4-2.17.61.24,2.82.78,3.72,12.35,20.62,14.61,29.99,13.22,54.28-.02.33.01.67,0,1-3.77,11.66-13.16,34.46-26.74,36.76-3.61.61-12.04.72-15.26-.76-6.77-3.11-10.45-27.4-13.25-35.25-3.15-8.79-8.49-19.06-13.75-26.75-.81-1.19-2.65-6.46-5.04-4.54l-18.96,37.54c-4.18,6.69-31.18,47.11-36,48-.07.01.15-1.18-.99-1l-1.01,3c-.31.36-.75.66-1,1-1.98.03-2.81,1.22-3.99,2.51-7.56,8.31-15.3,16.35-23.01,24.49-10.24,9.7-21.47,20.26-33,30l-7.55,4.95-1.02,3.07c31,24.49,74.23,39.79,85.29,81.81.46,1.74-.61,3.76,2.28,3.17,1.49,9.74.75,19.77-6,27-16.48,17.66-29.3,16.17-50.77,22.73-20.12,6.15-36.26,16.54-57.74,19.31-1.87.24-4.06-1.27-3.5,1.96-6.9.66-11.07.7-18,0l-26.97-8.53-17.03-9.47c-2.34-2.03-6.8-6.61-9-9-3.31-7.26-8.44-13.53-11.48-21.02-6.11-15.03-7.27-32.42-6.56-48.52.94-21.48,8.85-37.98-3.96-57.46-6.29-15.25-13.56-27.55-19-44-4.68-14.15-9.01-29.19-11-44-1.79-13.31-1.84-28.06-1.98-41.51-.02-1.69.64-4.45-1.02-5.49.04-.66-.05-1.34,0-2,3.11.55,1.85-1.56,1.99-3.47,2.53-34.03,12.7-67.39,28.62-97.42,1.9-3.58,5.51-6.63,5.39-11.11l6-10c2.59-.74,4.79-4.82,6.42-7.08,3.6-4.99,7.02-10.15,10.57-15.17l22.65-26.73c-2.35-7.81-7.08-14.9-8.63-23.02-3.67-19.19,1.2-38.9,14-53,2.85-1.83,8.49-3.45,9-7,1.18-.63,3.47-.34,4.49-2.01.98-2.47.81-5.53,1.51-7.99,2.7.58,1.92-1.37,2.48-2.97,5.16-14.73,11.42-29.01,21.52-41.03,3.77-4.48,9.48-10.29,14-14ZM207.44,25.15c-1.98.13-4.03-.18-6,0-21.25,1.98-44.6,14.82-58.04,31.46-1.2,1.49-2.35,2.25-1.96,4.54-4.1,5.32-5.07,7.06-8,13-2.42-.53-2.07,1.23-2.82,2.63-1.43,2.69-9.53,17.23-3.78,17.32,1.62.03,3.61-1.13,6.06-1.01,5.7.28,12.89,4.87,16.54,9.06,19.87,22.8,13.77,82.28-17.73,93.77-4.42,1.61-8.91,1.74-13.27,3.23-3.14-.58-6.61-.5-9-1-3.32-.7-6.05-1.9-9.02-3.48-2.71-1.44-8.8-7.14-10.96-6.07-34.23,34.3-61.83,77.79-72.54,125.54-12.56,55.98-7.11,109.18,20.34,159.68,10.81,19.89,16.52,21.18,15.21,46.87-1.95,38.32-11.3,76.05,27.63,101.28,36.84,23.87,64.14,5.42,98.81-6.84,18.41-6.51,51.85-9.21,55.26-32.74,4.25-29.38-34.48-55.67-56.72-67.76-17.11-9.3-36.06-17.96-55.02-22.49l.48-3c72.09-54.94,147.16-123.56,164.51-216.98-34.84-.59-74.28-20.26-75.99-59,1.61-.09,2.34-.36,3.47,1.02,1.29,1.58,4.56,11.7,6.73,15.27,20.74,34.25,77.43,38.7,109.82,20.22,4.79-2.73,14.68-8.91,3.73-10.33-9.4,3.35-18.29,8.46-27.97,11.09-15.24,4.15-29.74,5.3-44.46-1.1s-26.56-22.33-24.06-39.42c.5-3.38,2.87-11.22,6.74-11.76v17.5c0,7.53,14.18,21.01,21.01,23.99,25.06,10.9,43.02-3.01,64.99-9.97,14.72-4.67,18.77,12.17,33.02,1.01,22.97-18,5.71-59.92-12.01-76.03-4.88-4.44-23.35-14.94-24.6-19.42-.5-1.79-.37-1.87,1.08-3.05l6.5,3.98c-1.41-6.79-5.88-13.02-10.03-18.46-35.53-46.48-112.31-55.68-159.98-23.06-1.44.98-3.14,1.04-2.98,3.52h-1c-.14-.26.14-.74,0-1-1.29-2.41-2-3.91-4-5.98,12.82-8.71,28.83-16.42,44-20.02,24.3-5.77,54.54-3.42,78,5,5.03,1.81,12.94,5.31,17.68,7.82,5.16,2.74,11.07,8.11,16.32,10.18.39.15.54,2.44,1.26-.28,1.54-5.89-2.78-13.48-5.26-18.72-6.2-13.14-15.53-25.59-28-33-8.66-6.92-26.94-17.05-38-15-.28.05-.71.03-1,0v-1c-8.73-3.45-21.02-3.61-30.55-3.06-1.86.11-3.75-.22-4.45,2.06ZM101.45,180.13c6.23,3.4,8.36,4.39,14.49.01,15.59-11.13,18.64-55.9,5.04-69.03-3.91-3.77-11.04-4.81-14.53.02,19.74,9.92,16.54,52.6,1.02,64.54-1.99,1.53-2.88,1.49-4.61,2.39-1.02.53-1.9-.53-1.41,2.07Z"/><path class="cls-3" d="M420.44,286.15c-1.13.65-1.93,7.66-2.04,9.46-1,15.6.12,31.89-.95,47.55h-13s2-87.01,2-87.01h20l19.02,61.01c.9.37,1.78-1,1.98-1.01.36,0,1.3.99,1.99,1.01l19.01-61.01h19l2.01,87.01h-13.01c-.23-9.17.31-18.41.05-27.58-.05-1.9-1.02-3.65-1.04-4.43-.28-8.64.21-17.36,0-26-.09-1.49-3.43-1.25-3.92-.92-1.07.73-6.16,21.75-7.08,24.92-3.34,8.36-8.42,17.96-10,27-.06.32.04.67,0,1l-2.66,4.05-9.4.52c-1.75-6.01-4.85-11.79-6.94-17.57-4.09-11.27-7.1-25.92-11.85-36.62-.7-1.58.07-1.44-2.15-1.38-.35,0-.84-.09-1,0Z"/><path class="cls-20" d="M411.44,384.15c15.87-21.5,61.42-19.4,63,12l-15,1c.51-4.47-.69-5.9-3.01-8.99-6.44-8.59-18.2-7.89-26-2-5.17,3.91-6.86,6.91-9,13-2.68-.57-1.97,1.34-2.46,2.99-3.41,11.31-2.27,26.58,6.46,35.01,7.08,12.01,28.56,13.36,34.53-.98.89-2.15-.71-5.67,2.47-5.02h12c1.55,1.57-2.78,13.58-4,16-8.42,8.54-22.2,12.11-34,11-8.92-.84-17.02-5.74-24-11-.31-.35-.71-.64-1-1-9.98-17.59-12.45-45.13,0-62Z"/><path class="cls-8" d="M818.44,281.15c2.11-.77,2.31-1.87,2.7-1.97,4.52-1.18,4.32,1.81,4.98,1.96,6.45,1.46,8.53-1.12,15.24,4.6,5.5,4.68,7.96,12.01,8.08,18.42.08,3.99-.05,8.01,0,12h-38c-.22,1.76,2.26.95,3.49,1,11.8.49,23.71-.36,35.51,0l-39,1.01c-1.6,1.52,5.29,12.58,7,13.57,1.28.75,2.47-.59,3.4-.56.68.02.48,1.76,1.27,1.97,3.32.9,5.35-1.11,8.33-1.98,4.95-1.44,1.98-1.14,4.41-3.07,2.89-2.3,11.68,3.83,11.46,5.39s-3.62,4.41-4.88,5.68c-10.79,6.19-24.17,7.16-35.24.95l-10.76-13.95c-2.11-6.2-2.43-11.43-2-18,2.72-2.78,2.49-7.33,4.15-11.35,4.46-10.83,9.8-11.99,19.85-15.65ZM810.44,307.15h20.5c.25,0,3.47-1.21,3.58-1.61.53-18.08-25.65-15.92-24.08,1.61Z"/><path class="cls-14" d="M630.44,298.15c.02-18.21,29.13-20.79,40.37-11.87,1.45,1.15,5.63,9.06,5.63,10.37v46.5l-11.44.07c-.47-3.96-2.05-2.65-2.56-3.07-.35-.29-.67-.83-1-1-.19-.1-.24-1.02-.49-.99-7.71,8.32-20.39,7.63-29.51,1.99-.33-.33-.71-.64-1-1-3.62-6.54-3.97-13.84-2-21l1-3c.3-.35.66-.69,1-1,7.04-2.78,12.82-5.13,20.52-5.98,2.35-.26,9.85.9,10.48-1.02-.02-5.26,1.59-10.96-4.72-12.78s-12.54-.09-13.85,6.85c-1.32.11-11.04-2.32-12.43-3.07ZM662.44,318.15h-15.5c-1.45,0-7.68,8.31-2.01,13.01,7.02,5.82,20.79-3.75,17.51-13.01Z"/><path class="cls-14" d="M622.44,395.15c20.43-1.83,30.33,7.3,33,27,.29,2.17-.94,5.59,1,7-.01.33.01.67,0,1l-39.01.5,39.01.5c-1.04,1.66-3.8,1-5.49,1.02-10.49.13-23.46-1.08-33.51-.02-.78.08-2.06-.42-2.02.51,2.43,10.14,9.29,16.79,20.31,14.27,3.55-.81,5.9-5.82,8.19-5.8l9.51,5.04c.13.18-1.67,3.58-2,3.98-2.45,2.92-12.74,7.4-16.59,7.92-5.62.75-15.41-.21-20.41-2.92-14.18-7.66-16.4-36.54-7.89-49.16l8.89-8.84c2.2-.96,4.62-1.79,7-2ZM616.44,421.15h22.5c3.94,0-.91-10.75-5.23-12.77-10.22-4.78-16.68,3.06-17.27,12.77Z"/><path class="cls-1" d="M535.44,413.15c1.9,13.07-1.42,30.45,0,44.01l-12.97-.05-1.04-3.96c-1.48-.24-2.84,1.31-4,2l-11.46,3.04c-4.83.8-8.94-1.38-13.54-2.04-.66-.56-4.49-4.37-5-5-3.39-11.02-3.72-21.28,8.48-26.02,3.59-1.4,7.77-2.25,11.52-2.98s13.03,1.09,13.06-4.46c.04-7.66-6.1-11.05-13.06-10.54-5.95.44-5.29,5.14-7.68,5.9l-12.32-1.91,4-7.99c12.6-13.05,41.03-10.43,44,10ZM503.44,446.15c4.34,2.5,5.67,2.38,10.69.19,7.51-3.29,9.13-8.35,6.17-16.05-6.56-1.47-21.51.98-20.95,9.34.3,4.5,1.03,4.76,4.1,6.52Z"/><path class="cls-1" d="M535.44,282.15c4.15.8,5.57,1.6,9,4,1.57,2.3,6,9.11,6,11.5v45.5c-3.25-.4-7.45.59-10.51,0-2.32-.44-2.36-2.31-3.49-3.01-1.5-.93-.89-.13-2,0-3.08.35-2.84,1.58-5.11,2.41-16.26,5.87-31.07-2.16-27.66-20.67.17-.91,2.38-6.28,2.77-6.73,6.31-7.17,24.3-6.18,32.86-8.14.57-6.61.88-8.9-4.86-11.86-4.62-2.38-4.92-2.31-10-1-1.23-1.58-2.36-.69-3,1-.32.16-.61.8-1,1-1.59.8-2.58,2.8-4.51,3-2.74.29-7.39-2.2-10.49-2.01l2-6.99c.3-.36.67-.67,1-1,7.52-7.38,19.01-8.92,29-7ZM519.44,320.15c-9.92,5.09-3.34,15.09,6.4,13.93,7.39-.88,13.84-8.41,11.6-15.94-.66-.05-1.33.04-2,0-5.92-.28-10.68-.73-16,2Z"/><path class="cls-3" d="M588.44,295.15c-.16,0-.68-.92-1.5-.93-2.3-.01-7.5,4.6-7.5,6.43v42.5h-14v-61h13.01s0,4,0,4c1.62.52,1.89-.97,1.99-1,.33-.08.72.1,1,0,.3-.11.72.11,1,0,1.89-.76,3.13-2.31,5.73-2.77,7.45-1.31,18.65.14,23.27,6.77,7.72,11.08,2.48,38.72,3.86,52.36-1.01,3.1-10.03,1.1-12.86,1.64v-39.5c0-.4-2.88-7.09-3.2-7.32-.83-.59-2.13.02-2.8-.18-.8-.23-2.58-.46-3-1-.19-.24.12-1.4,0-1.99h-1.48s-.51,1.99-.51,1.99c-.99,0-2.01.06-3,0Z"/><path class="cls-19" d="M692.44,282.15c3.82-.9,1.28-13.55,1.99-17.01h13.01s-.05,15.38-.05,15.38c.24,1.23,1.54.43,2.04.63,4.39,1.75,8.31.83,13.01.99v11s1.99-10.99,1.99-10.99v13.01c-4.97.17-10.03-.25-15,0-.66.03-1.34-.05-2,0,1.25,9.1-2.55,25.48,2,33.01,3.61,5.97,8.74,5.83,14.99,4l-.1,10.89c-7.49,1.96-18.75,2.19-24.44-3.85-1.8-1.91-5.1-9.64-5.45-12.05-.69-4.75,1.57-33.3-1.66-34.04l-7.34.05v-11.01s7,0,7,0Z"/><path class="cls-2" d="M447.44,316.15l20-62h20.5l3.5,91h-16c-1.77-11.08-1.01-22.73-1-34h1c.03.77.99,2.53,1.04,4.43.26,9.17-.28,18.41-.05,27.58h13.01s-2.01-87.01-2.01-87.01h-19l-19.01,61.01c-.69-.02-1.63-1.01-1.99-1.01Z"/><path class="cls-18" d="M404.44,296.15c0-13.66-.4-27.4.47-41.05l22.52-.95,20.01,62.01c-.21,0-1.08,1.38-1.98,1.01l-19.02-61.01h-20l-2,86.99h13c1.08-15.65-.04-31.94.95-47.53.11-1.8.92-8.8,2.04-9.46l-1,59h-16c-.03-4.99.04-10.01,0-15,1.66-1.04,1-3.8,1.02-5.49.1-9.5-.02-19.03-.02-28.51Z"/><path class="cls-16" d="M303.44,30.15h-1c-43.95-37-117.68-37.39-162-1h-1c45.1-39.44,119.04-38.62,164,1Z"/><path class="cls-11" d="M588.44,295.15c-1.22,1.31-5.03,1.52-5.77,2.24-2.83,2.75-.37,37.35-1.18,44.31-.17,1.46-.12,2.57-1.55,3.45h-15l-1.5-1.5v-62.5l15.43-.06,1.57,4.06c-.11.03-.38,1.52-1.99,1v-4s-13.01,0-13.01,0v61h14v-42.5c0-1.83,5.19-6.44,7.5-6.43.82,0,1.34.92,1.5.93Z"/><path class="cls-6" d="M667.44,395.15c.66-.04,1.34.02,2,0,1.65-.05,3.35-.06,5,0,1.99.07,4.01-.05,6,0l1,6c-.72-1.13-2.14-2.13-2.62-4.07l-11.38.07v60h13.01c1.47-11.15-2.85-30.22,1.99-40h1c-2.54,7.13.46,39.55-.99,41.01l-17.01-1.01v-62c.66-.03,1.34.04,2,0Z"/><path class="cls-16" d="M33.44,488.15c12.8,19.48,4.9,35.98,3.96,57.46-.71,16.1.45,33.49,6.56,48.52,3.04,7.49,8.17,13.76,11.48,21.02-17.09-18.58-21.04-43.91-20.04-68.54.9-22.14,7.15-36.38-1.96-58.46Z"/><path class="cls-22" d="M611.44,289.15c.06.08,1.23-.41,1.97.73.41.64,4.03,10.19,4.03,10.77v44.5h-17v-42.5c0-1.58-3.03-5-4-6.5.67.2,1.97-.42,2.8.18.32.23,3.2,6.92,3.2,7.32v39.5c2.83-.54,11.85,1.46,12.86-1.64-1.38-13.64,3.86-41.28-3.86-52.36Z"/><path class="cls-10" d="M563.44,369.15v89h-16v-89h16ZM562.44,371.15l-12.54-.76-1.46,1.26v85.5h14v-86Z"/><path class="cls-23" d="M575.44,369.15v88h14v-88h1c1.42,29.25-1.07,59.63,0,89.01h-16.01c-.05-.67.04-1.34,0-2.01-.23-4.62.04-9.37,0-14-.02-2.99,0-6.01,0-9-.06-19.48-.26-39.03-.02-58.51.02-1.69-.64-4.45,1.02-5.49Z"/><path class="cls-26" d="M238.44,598.15c1.79.21-.81,2.81-1.2,3.3-12.92,16.22-41.44,17.83-60.33,24.67-19.18,6.95-28.77,13.94-50.47,16.03-.56-3.22,1.63-1.72,3.5-1.96,21.47-2.77,37.61-13.16,57.74-19.31,21.47-6.57,34.28-5.08,50.77-22.73Z"/><path class="cls-26" d="M36.44,239.15c.11,4.48-3.49,7.52-5.39,11.11-15.92,30.03-26.09,63.4-28.62,97.42-.14,1.91,1.12,4.02-1.99,3.47,2.72-39.6,14.37-78.62,36-112Z"/><path class="cls-9" d="M574.44,456.15l-2,1.5.05-87.76c3.8-5.25,12.08-1.79,17.96-2.73.05.66-.04,1.33,0,2h-15c-1.66,1.04-1,3.79-1.02,5.49-.24,19.48-.05,39.04.02,58.51-1.68,1.86-1.68,7.14,0,9,.04,4.63-.23,9.38,0,14Z"/><path class="cls-2" d="M630.44,298.15c-.76-.41-1.67-.64-1.91-1.64,4.15-19.73,36.7-22.96,46.75-6.7.78,1.26,3.16,6.83,3.16,7.84v47.5c-5.17-1.12-17.36,3.52-16-5,.51.42,2.09-.89,2.56,3.07l11.44-.07v-46.5c0-1.3-4.18-9.21-5.63-10.37-11.23-8.93-40.35-6.34-40.37,11.87Z"/><path class="cls-22" d="M544.44,286.15c1.08.76,2.99,1.5,3.67,2.33,1.06,1.29,4.33,9.67,4.33,11.17v45.5l-15.42.02-.58-5.02c1.13.7,1.17,2.57,3.49,3.01,3.06.58,7.26-.41,10.51,0v-45.5c0-2.39-4.43-9.2-6-11.5Z"/><path class="cls-22" d="M782.44,293.15c.15.14,1.32-.34,1.8.16.37.39,3.2,9.79,3.2,10.34v14.5h-40c.2-.51-.6-1.79.63-2.04l37.38.05c.6-8.27-.29-15.25-3.01-23.01Z"/><path class="cls-26" d="M411.44,384.15c-12.45,16.87-9.98,44.41,0,62-13.63-17.04-14.36-44.89-1-62h1Z"/><path class="cls-5" d="M315.44,399.15v1c-10.27-5.48-10.4-22.97-13.97-33.53-2.76-8.16-9.55-22.08-14.03-29.47h1c5.26,7.69,10.6,17.96,13.75,26.75,2.81,7.84,6.48,32.13,13.25,35.25Z"/><path class="cls-5" d="M373.44,167.15c14.35,22.5,20.09,62.84-10,75,26.44-14.44,23.49-52.81,9-75h1Z"/><path class="cls-16" d="M694.44,327.15c.35,2.4,3.66,10.14,5.45,12.05,5.68,6.04,16.95,5.81,24.44,3.85l.1-10.89c-6.25,1.83-11.38,1.97-14.99-4h1c4.44,5.07,10.51,1.91,16.01,2.54l-.47,13.5c-14.63,6.08-31.15-.21-32.54-17.04h1Z"/><path class="cls-5" d="M692.44,281.15v-18h17v18c-.51-.2-1.8.6-2.04-.63l.05-15.38h-13.01c-.71,3.46,1.83,16.11-1.99,17.01v-1Z"/><path class="cls-26" d="M338.44,96.15c25.55,6.61,32.29,36.35,26.21,59.32.17,1.73,7.31,9.37,8.79,11.68h-1c-1.57-2.4-9.45-10.03-9.76-11.61s2.34-12.08,2.39-15.72c.21-17.39-7.53-37.05-25.58-42.25l-1.04-1.42Z"/><path class="cls-2" d="M410.44,384.15c4.65-5.96,8.35-10.2,16.33-13.17,21.84-8.15,49.26,1.47,49.68,27.18l-17.91.9-3.1-10.9h1c2.32,3.09,3.52,4.52,3.01,8.99l15-1c-1.58-31.4-47.13-33.5-63-12h-1Z"/><path class="cls-5" d="M763.44,332.15c5.29-.23,6.91-4.11,9.49-7.98l13.49,8.48c-6.95,7.04-11.86,12.5-22.49,13.49-48.68,4.51-42.37-79.12,4.53-65.51,3.38.98,12.31,6.89,13.7,9.81.57,1.19.1,2.18.28,2.7-3.5-3.25-4-6.34-8.77-8.73-9.06-4.52-21-4.43-29.7.75-15.02,8.95-14.62,38.78-4.52,51.48,8.98,11.28,37.84,10.24,43.93-3.9l-9.46-5.59c-4.82,3.72-4,4.91-10.48,5.99v-1Z"/><path class="cls-5" d="M3.44,400.15h-1c-2.32-17.33-2.99-29.53-2-47,1.66,1.04,1,3.8,1.02,5.49.14,13.45.19,28.21,1.98,41.51Z"/><path class="cls-5" d="M357.44,362.15c1.39-24.29-.87-33.66-13.22-54.28-.54-.9-2.95-3.11-.78-3.72,11.95,16.47,17.66,32.9,16.02,53.52-.14,1.77-.35,3.44-2.02,4.48Z"/><path class="cls-5" d="M313.44,40.15c16.17,17.73,21.29,31.33,25,55-3.67-9.54-4.91-19.99-9.13-29.37-3.62-8.05-10.99-19.02-16.87-25.63h1Z"/><path class="cls-5" d="M615.44,397.15l-8.89,8.84c-8.51,12.62-6.28,41.51,7.89,49.16v1c-19.49-11.83-20.54-49.58,1-59Z"/><path class="cls-18" d="M87.44,104.15c-12.8,14.1-17.67,33.81-14,53h-1c-3.52-17.61-1.28-42.53,15-53,2.8-3.09,4.64-4.67,9-7-.51,3.55-6.15,5.17-9,7Z"/><path class="cls-26" d="M14.44,444.15l-1,1c-5.53-16.4-8.68-27.62-11-45h1c1.99,14.81,6.32,29.85,11,44Z"/><path class="cls-2" d="M421.44,286.15c2.21-.06,1.45-.2,2.15,1.38,4.75,10.7,7.77,25.35,11.85,36.62h-1c-4.47-12.59-9.65-25.01-13-38Z"/><path class="cls-5" d="M435.44,324.15c2.09,5.78,5.19,11.57,6.94,17.57l9.4-.52,2.66-4.05c-.07.66,1.58,4.76-1.64,5.87h-12.23c-2.37-6.16-3.94-12.67-6.14-18.87h1Z"/><path class="cls-18" d="M315.44,400.15v-1c3.21,1.48,11.65,1.37,15.26.76,13.58-2.3,22.97-25.1,26.74-36.76-.38,9.59-6.11,21.15-12.58,28.92-7.14,8.56-19.01,13.64-29.42,8.08Z"/><path class="cls-6" d="M709.44,295.15c.53,10.93-1.16,22.27,1,33h-1c-4.55-7.53-.75-23.91-2-33.01.66-.05,1.33.04,2,0Z"/><path class="cls-26" d="M475.44,285.15c-1.84,6.73-.99,14.92-1,22-2.01-5.2-.78-11.88-1-17.51-.05-1.21.75-3.72-.99-3.48-.68,8.42-5.04,15.56-8.01,22.99.92-3.16,6.01-24.19,7.08-24.92.48-.33,3.83-.57,3.92.92Z"/><path class="cls-16" d="M796.44,326.15l10.76,13.95c11.07,6.2,24.45,5.24,35.24-.95-.12.12.44,1.23-.63,2.07-1.59,1.25-9.07,4.09-11.32,4.48-16.23,2.81-28.83-4.19-34.05-19.55Z"/><path class="cls-5" d="M108.44,642.15c-17.86-1.81-30.45-6.25-44-18l17.03,9.47,26.97,8.53Z"/><path class="cls-23" d="M536.44,413.15c1.53,14.05-1.14,30.67,0,45.01h-14.43s-.58-5.01-.58-5.01l1.04,3.96,12.97.05c-1.42-13.56,1.9-30.94,0-44.01h1Z"/><path class="cls-5" d="M126.44,43.15c-10.1,12.02-16.36,26.3-21.52,41.03-.56,1.6.22,3.55-2.48,2.97,5.29-18.37,11.34-30.7,24-45v1Z"/><path class="cls-11" d="M651.44,451.15c-9.38,9.75-25.48,12-37,5v-1c5.01,2.71,14.8,3.66,20.41,2.92,3.85-.51,14.14-4.99,16.59-7.92v1Z"/><path class="cls-2" d="M421.44,399.15c-4.27,12.13-2.48,27,4,38-8.73-8.43-9.87-23.7-6.46-35.01.5-1.64-.22-3.56,2.46-2.99Z"/><path class="cls-11" d="M681.44,401.15c.6.71,8.85-5.98,10.97-6.53,3.32-.87,6.68-.38,10.03-.47v16c-6.49-.57-16.49-.04-19,7h-1c3.42-6.89,11.54-10.02,19-9l.04-11.34c-1.05-4.41-17.63,1.81-18.55,6.33-2.48.55-1.1-1.39-1.49-2Z"/><path class="cls-5" d="M33.44,488.15c-10.19-15.5-14.08-25.44-20-43l1-1c5.44,16.45,12.71,28.75,19,44Z"/><path class="cls-5" d="M340.44,300.15l-.92,1c-3.47-8.85-16.44-23.43-17.1-32.63-.1-1.45,1.01-2.24,1.02-2.37l17,34Z"/><path class="cls-26" d="M462.44,430.15v1c-3.17-.65-1.57,2.87-2.47,5.02-5.97,14.34-27.45,13-34.53.98,6.29,6.07,14.62,8.11,23.26,6.76s9.99-6.65,9.75-14.76c1.47-.59,3.24.97,4,1Z"/><path class="cls-11" d="M470.44,447.15c-4.9,9.66-21.34,13.48-31.58,13.04-1.31-.06-2.16-1.01-2.42-1.04v-1c11.8,1.11,25.58-2.46,34-11Z"/><path class="cls-26" d="M661.44,339.15c-5.55,7.95-19.88,9.54-27.54,4.01-1.22-.88-1.65-2.17-2.46-3.01,9.12,5.65,21.8,6.33,29.51-1.99.24-.03.3.89.49.99Z"/><path class="cls-23" d="M850.44,317.15c-11.8-.36-23.71.49-35.51,0-1.23-.05-3.71.76-3.49-1h38c-.05-3.99.08-8.01,0-12l1,13Z"/><path class="cls-5" d="M165.44,478.15c-2.1,1.77-4.16,3.55-6.53,4.98v3.05c7.4,5.02,14.55,10.56,21.91,15.58,25.67,17.5,58.33,34.9,63.61,69.39-2.9.6-1.83-1.43-2.28-3.17-11.06-42.03-54.29-57.32-85.29-81.81l1.02-3.07,7.55-4.95Z"/><path class="cls-11" d="M536.44,413.15h-1c-2.97-20.43-31.4-23.05-44-10v-1c13.44-14.21,42.69-10.15,45,11Z"/><path class="cls-18" d="M462.44,430.15c4.28.14,9.31-.96,14.01,0,.38,7.06-1.22,12.15-6.01,17,1.23-2.42,5.55-14.43,4-16h-12s0-1,0-1Z"/><path class="cls-11" d="M532.44,295.15c5.74,2.96,5.42,5.24,4.86,11.86-8.55,1.96-26.55.97-32.86,8.14.74-.81.24-1.88,2.83-3.66,1.39-.95,9.47-4.34,10.67-4.34h17.5c-.11-3.96.87-9.56-3-12Z"/><path class="cls-5" d="M456.44,388.15h-1c-6.42-6.48-16.96-4.03-25-2,7.8-5.89,19.56-6.59,26,2Z"/><path class="cls-2" d="M464.44,309.15c-2.36,8.07-4.7,15.98-7.52,24.03-.56,1.6.22,3.55-2.48,2.97,1.58-9.04,6.66-18.64,10-27Z"/><path class="cls-18" d="M661.44,307.15c-.63,1.92-8.14.75-10.48,1.02-7.69.86-13.47,3.2-20.52,5.98,8.93-8.12,19.49-7.17,31-7Z"/><path class="cls-5" d="M505.44,290.15l-2,6.99c3.1-.18,7.75,2.3,10.49,2.01,1.93-.2,2.92-2.2,4.51-3l-2.68,4.9-13.35-2.38c-2.04-1.15,1.96-7.23,3.03-8.52Z"/><path class="cls-18" d="M582.44,284.15c5.8-5.66,18-5.06,24.38-.84,1.95,1.29,3.41,4.27,4.62,5.84-4.62-6.63-15.82-8.08-23.27-6.77-2.61.46-3.84,2.01-5.73,2.77v-1Z"/><path class="cls-5" d="M491.44,403.15l-4,7.99,12.32,1.91c2.38-.76,1.72-5.46,7.68-5.9-3.91,2.14-5.15,3.83-6.59,8.08-11.13-2.12-20.77-1.07-9.41-13.08v1Z"/><path class="cls-26" d="M504.44,315.15c-.39.45-2.6,5.82-2.77,6.73-3.41,18.52,11.41,26.55,27.66,20.67,2.27-.82,2.02-2.06,5.11-2.41-16.28,17.7-45.33-4.58-32.03-24.32.64-.95,1.94-.58,2.03-.68Z"/><path class="cls-11" d="M517.44,455.15c-8.09,4.8-16.61,8.03-25,1,4.61.66,8.71,2.83,13.54,2.04l11.46-3.04Z"/><path class="cls-26" d="M436.44,458.15v1c-12.07-1.46-15.87-2.83-24-12,6.98,5.26,15.08,10.16,24,11Z"/><polygon class="cls-10" points="656.44 430.15 656.44 431.15 617.43 430.65 656.44 430.15"/><path class="cls-18" d="M506.44,289.15c6.68-9.32,16.13-10.09,26.54-8.57,1.48.22,2.9-1.81,2.46,1.57-9.99-1.92-21.48-.38-29,7Z"/><path class="cls-26" d="M73.44,157.15c1.55,8.12,6.28,15.21,8.63,23.02l-22.65,26.73c-3.55,5.02-6.96,10.18-10.57,15.17-1.63,2.26-3.83,6.34-6.42,7.08,7.59-12.06,15.95-23.75,25.95-33.59,1.84-5.03,13-12.23,11.85-17.68-.42-1.98-5.05-9.04-6.25-12.77-.95-2.95-.99-5.2-1.55-7.96h1Z"/><path class="cls-21" d="M403.44,330.15c-.08-9.48-.12-19.02-.02-28.51.02-1.69-.64-4.45,1.02-5.49,0,9.49.12,19.02.02,28.51-.02,1.69.64,4.45-1.02,5.49Z"/><path class="cls-26" d="M628.44,318.15c-1.97,7.16-1.62,14.46,2,21-4.89-5.99-6.48-9.88-4.57-18.08.64-2.75,1.91-2.81,2.57-3.92v1Z"/><path class="cls-5" d="M507.44,422.15c-3.76.72-7.93,1.58-11.52,2.98-12.2,4.75-11.87,15.01-8.48,26.02-10.59-12.96,1.35-28.25,15.56-29.63,1.62-.16,2.97-.41,4.44.63Z"/><path class="cls-5" d="M831.44,331.15l5.49-6.98,12.39,7.09c1.48,2.59-5.16,6.9-6.88,7.89,1.26-1.27,4.67-4.16,4.88-5.68s-8.57-7.69-11.46-5.39c-2.43,1.94.53,1.63-4.41,3.07Z"/><path class="cls-18" d="M288.44,337.15h-1c-.34-.56-2.9-3.92-3.99-3l-7.74,17.73c-2.7,1.64-2.37,4.02-3.72,6.32-2.37,4.05-5.08,7.98-7.55,11.95l18.96-37.54c2.39-1.93,4.22,3.35,5.04,4.54Z"/><path class="cls-10" d="M692.44,281.15v1h-7.01s0,11.01,0,11.01l7.34-.05c3.24.74.97,29.29,1.66,34.04h-1c-.83-10.09.57-21.23.05-31.45-.32-1.21-2.17-.31-3.05-.55-1.93-.53-3.47-1.71-6.01-1v-13h8.01Z"/><path class="cls-18" d="M622.44,395.15c1.16-1.18,4.11-1.62,5.67-1.62,17.49.03,27.57,12.02,28.33,28.62h-1c-2.67-19.7-12.57-28.83-33-27Z"/><path class="cls-10" d="M724.44,282.15l-1.99,10.99v-11c-4.7-.17-8.62.76-13.01-.99h14.5s.5,1,.5,1Z"/><path class="cls-23" d="M475.44,311.15h-1c0-1.33,0-2.67,0-4,0-7.08-.84-15.27,1-22,.21,8.64-.28,17.36,0,26Z"/><path class="cls-11" d="M818.44,281.15c-10.06,3.66-15.39,4.82-19.85,15.65-1.66,4.02-1.43,8.57-4.15,11.35.55-8.33,2.72-13.95,8.49-20.01,3.55-3.73,10.18-9.08,15.51-6.99Z"/><path class="cls-5" d="M617.44,432.15c-.25,8.48,6.84,14.94,15.23,13.8,3.92-.53,7.94-2.23,8.71-6.38l1.53-.46,12.53,6.05c.21,3.21-2.38,4.3-4,5.99v-1c.33-.4,2.13-3.8,2-3.98l-9.51-5.04c-2.3-.02-4.64,4.99-8.19,5.8-11.02,2.52-17.88-4.13-20.31-14.27-.04-.93,1.23-.43,2.02-.51Z"/><path class="cls-11" d="M349.44,245.15c-5.66,9.06-16.42,13.87-26,18,0-.07-.78-.3-.73-.55,6.01-4.33,13.44-6.77,19.67-11.02,2.45-1.67,4.47-5.29,7.07-6.43Z"/><path class="cls-19" d="M684.44,281.15v13c2.53-.72,4.07.46,6,1h-7.01s1.01-14,1.01-14Z"/><path class="cls-26" d="M763.44,332.15v1c-.29.05-.81,1-2.32.96-7.34-.19-16.54-8.72-13.68-15.96,2.41,9.56,5.17,14.47,16,14Z"/><path class="cls-5" d="M225.44,421.15c-7.47,9.89-18.07,18.54-27,27,7.72-8.14,15.45-16.18,23.01-24.49,1.18-1.29,2.01-2.48,3.99-2.51Z"/><path class="cls-10" d="M656.44,429.15c-1.94-1.41-.71-4.83-1-7h1c.11,2.29.1,4.71,0,7Z"/><path class="cls-9" d="M680.44,395.15c-1.99-.05-4.01.07-6,0,1.01-1.64,5.05-1.61,6,0Z"/><path class="cls-9" d="M667.44,395.15l.51-2.01h1.48s0,2.01,0,2.01c-.66.02-1.34-.04-2,0Z"/><path class="cls-11" d="M126.44,43.15v-1c4.09-4.62,8.35-8.94,13-13h1c-4.52,3.71-10.23,9.52-14,14Z"/><path class="cls-11" d="M591.44,295.15l.51-2.01h1.48c.13.6-.19,1.76,0,2.01h-2Z"/><path class="cls-5" d="M522.44,294.15c-.65.17-2.53.77-3,1,.64-1.69,1.77-2.58,3-1Z"/><path class="cls-11" d="M303.44,30.15c3.6,3.17,6.76,6.44,10,10h-1c-3.12-3.5-6.42-6.99-10-10h1Z"/><path class="cls-18" d="M628.44,318.15v-1c.34-.58.37-1.27,1-2l-1,3Z"/><path class="cls-5" d="M228.44,418.15c-.28,1.07-1.51,1.44-2,2l1.01-3c1.14-.18.92,1.01.99,1Z"/><path class="cls-11" d="M582.44,285.15c-.28.11-.7-.11-1,0,.31-.36.66-.67,1-1v1Z"/><path class="cls-25" d="M162.44,98.15c-.16-2.48,1.55-2.54,2.98-3.52,47.67-32.62,124.44-23.42,159.98,23.06,4.16,5.44,8.63,11.67,10.03,18.46l-6.5-3.98c-1.46,1.17-1.58,1.25-1.08,3.05,1.25,4.47,19.72,14.98,24.6,19.42,17.72,16.11,34.98,58.04,12.01,76.03-14.24,11.16-18.3-5.68-33.02-1.01-21.97,6.97-39.92,20.88-64.99,9.97-6.84-2.97-21.01-16.45-21.01-23.99v-17.5c-3.87.54-6.24,8.38-6.74,11.76-2.5,17.09,8.95,32.85,24.06,39.42s29.23,5.25,44.46,1.1c9.68-2.63,18.57-7.74,27.97-11.09,10.95,1.42,1.05,7.59-3.73,10.33-32.39,18.48-89.08,14.04-109.82-20.22-2.16-3.57-5.44-13.69-6.73-15.27-1.13-1.38-1.86-1.12-3.47-1.02,1.71,38.74,41.15,58.42,75.99,59-17.35,93.42-92.42,162.03-164.51,216.98l-.48,3c18.96,4.53,37.91,13.19,55.02,22.49,22.24,12.1,60.97,38.38,56.72,67.76-3.41,23.53-36.84,26.23-55.26,32.74-34.66,12.26-61.97,30.72-98.81,6.84-38.94-25.23-29.58-62.97-27.63-101.28,1.31-25.69-4.4-26.98-15.21-46.87-27.45-50.5-32.91-103.7-20.34-159.68,10.71-47.75,38.31-91.24,72.54-125.54,2.15-1.07,8.25,4.62,10.96,6.07,2.97,1.58,5.7,2.79,9.02,3.48-1.15,5.27,4.57,1.23,8.27,2.05.28.06,3.88,3.6,4.26,3.69,2.2.53,11.55.59,14,.29,4.95-.6,14.62-4.01,16.47-9.03,5.26-3.7,7.37-8,11-13,.81-1.12,2.28-1.4,4.17-5.33,8.95-18.66,8.7-46.68,3-66.31-.41-1.42-1.99-1.32-2.14-2.06-1.02-4.89-.57-6.9-6.03-10.3ZM243.2,134.37c-17.2,2.55-20.92,23.49-1.26,21.79s17.94-24.27,1.26-21.79ZM322.16,175.36c-4.12.93-10.79,9.49-6.78,12.36,4.91,3.52,6.01-5.66,8.77-6.44,3.46-1.06,6.51,4.14,9.29.35-.5-5.42-6.46-7.37-11.29-6.27ZM362.45,180.15c.49-2.73-1.57-5.32-4.46-5.05l-6.54,6.53c3.61,4.24,6.05-3.39,11-1.49ZM166.44,309.65c-1.13-7.25,0-20.02,0-28,0-.35-1.26-1.53-1.02-2.49-5.05-3.52-7.82,14.37-8.02,17.45-2.13,32.8,26.51,52.27,28.07,82.99.44,8.75-1.77,21.88-7.04,29.04-20.91,28.46-51.55-6.37-63.42-25.58-19.59-31.7-25.33-70.63-16.58-106.92-1.36-.06-1.94-.33-3.04.66-2.05,1.85-5.63,11.96-6.66,15.12-9.52,29.02-7.93,59.83,6.54,86.88,13.66,25.55,59.4,73.44,87.14,40.8,20.72-24.38,14.22-57.1-.17-82.78-4.05-7.23-14.62-19.56-15.81-27.19Z"/><path class="cls-17" d="M241.44,26.15c-.1.72.35.92,1,1,.29.03.72.05,1,0,5.14,1.22,10.25,2.48,15.25,4.25,7.12,2.54,16.27,6.89,22.75,10.75,10.97,8.77,21.18,20.04,27,33,2.32,5.18,4.18,11.43,5,17l-10.2-5.08c-6.51-5.9-15.49-8.91-23.8-11.92-26.72-9.66-50.15-11.25-78-5-13.3,2.99-32.74,10.26-43.29,18.94-.85.7-1.7,1.99-1.23,3.08l4.52,4.98c.14.26-.14.74,0,1,11.13,21.38,14.66,39.7,9.34,63.84-1.56,7.06-4.96,13.42-7.34,20.16-3.63,5-5.74,9.3-11,13-8.92,6.27-21.73,7.47-32,5,42.69-4.47,53.99-69.29,30-98-5.95-7.12-14.29-12.96-23.99-10.01-1.27-1.29,5.76-15.49,6.99-17.99,2.93-5.94,3.9-7.68,8-13,9.66-12.51,22.82-22.84,37.74-28.76,7.27-2.89,15.14-4.05,22.26-7.24,1.97-.18,4.02.13,6,0,11.94-.76,22.04-.96,34,1Z"/><path class="cls-4" d="M101.45,180.13c-.49-2.6.39-1.54,1.41-2.07,1.73-.9,2.61-.86,4.61-2.39,15.52-11.93,18.71-54.61-1.02-64.54,3.5-4.83,10.62-3.79,14.53-.02,13.6,13.12,10.55,57.9-5.04,69.03-6.13,4.38-8.26,3.39-14.49-.01Z"/><path class="cls-21" d="M162.44,98.15c5.46,3.39,5,5.4,6.03,10.3.16.75,1.73.64,2.14,2.06,5.7,19.63,5.95,47.64-3,66.31-1.89,3.93-3.36,4.21-4.17,5.33,2.38-6.74,5.79-13.1,7.34-20.16,5.32-24.14,1.78-42.46-9.34-63.84h1Z"/><path class="cls-18" d="M279.44,75.15v1c-23.46-8.42-53.7-10.77-78-5v-1c27.85-6.25,51.28-4.66,78,5Z"/><path class="cls-16" d="M150.44,102.15c23.99,28.71,12.69,93.53-30,98-.63-.15-1.38-.88-2-1,4.36-1.48,8.86-1.61,13.27-3.23,31.5-11.49,37.59-70.98,17.73-93.77h1Z"/><path class="cls-21" d="M152.44,195.15c-1.85,5.02-11.52,8.43-16.47,9.03-2.45.3-11.8.24-14-.29-.38-.09-3.99-3.63-4.26-3.69-3.7-.81-9.42,3.22-8.27-2.05,2.39.5,5.86.42,9,1,.62.12,1.37.85,2,1,10.27,2.47,23.08,1.27,32-5Z"/><path class="cls-26" d="M281.44,42.15c-6.48-3.85-15.63-8.21-22.75-10.75-4.99-1.78-10.11-3.04-15.25-4.25,11.06-2.05,29.34,8.08,38,15Z"/><path class="cls-5" d="M133.44,74.15c-1.24,2.5-8.26,16.7-6.99,17.99,9.7-2.96,18.05,2.88,23.99,10.01h-1c-3.65-4.19-10.84-8.78-16.54-9.06-2.46-.12-4.45,1.03-6.06,1.01-5.74-.09,2.35-14.63,3.78-17.32.75-1.4.4-3.16,2.82-2.63Z"/><path class="cls-16" d="M201.44,25.15c-7.13,3.18-14.99,4.35-22.26,7.24-14.92,5.92-28.08,16.25-37.74,28.76-.39-2.28.76-3.05,1.96-4.54,13.44-16.65,36.79-29.49,58.04-31.46Z"/><path class="cls-5" d="M201.44,70.15v1c-15.17,3.6-31.18,11.31-44,20.02,2,2.07,2.71,3.58,4,5.98l-4.52-4.98c-.47-1.09.38-2.38,1.23-3.08,10.54-8.68,29.98-15.95,43.29-18.94Z"/><path class="cls-11" d="M242.44,26.15h-1c-11.96-1.96-22.06-1.76-34-1,.7-2.28,2.58-1.95,4.45-2.06,9.54-.55,21.82-.39,30.55,3.06Z"/><path class="cls-16" d="M309.44,75.15c2.48,5.25,6.8,12.83,5.26,18.72-.71,2.72-.87.43-1.26.28,1.15-1.09.05-1.67,0-2-.82-5.57-2.68-11.82-5-17h1Z"/><path class="cls-5" d="M279.44,75.15c8.31,3,17.29,6.02,23.8,11.92l10.2,5.08c.05.33,1.15.91,0,2-5.25-2.07-11.17-7.44-16.32-10.18-4.74-2.51-12.64-6.02-17.68-7.82v-1Z"/><path class="cls-18" d="M281.44,42.15c12.47,7.41,21.8,19.86,28,33h-1c-5.82-12.96-16.03-24.23-27-33Z"/><path class="cls-26" d="M242.44,27.15c-.65-.08-1.1-.28-1-1h1v1Z"/><path class="cls-15" d="M810.44,307.15c-1.57-17.52,24.61-19.69,24.08-1.61-.11.4-3.33,1.61-3.58,1.61h-20.5Z"/><path class="cls-12" d="M662.44,318.15c3.28,9.25-10.49,18.82-17.51,13.01-5.67-4.7.56-13.01,2.01-13.01h15.5Z"/><path class="cls-15" d="M616.44,421.15c.59-9.71,7.05-17.55,17.27-12.77,4.32,2.02,9.17,12.77,5.23,12.77h-22.5Z"/><path class="cls-5" d="M503.44,446.15c-3.06-1.76-3.8-2.02-4.1-6.52-.55-8.37,14.39-10.81,20.95-9.34,2.96,7.7,1.34,12.76-6.17,16.05-5.02,2.2-6.35,2.31-10.69-.19,9.73.58,19.38-2.38,17-14-9.99-1.16-26,1.03-17,14Z"/><path class="cls-12" d="M535.44,318.15c-.06,5.49,1.4,8.51-3.67,11.83-6.78,4.43-16.74,4.08-15.42-6.35.28-2.19,2.39-1.67,3.1-3.48,5.32-2.73,10.08-2.28,16-2Z"/><path class="cls-16" d="M535.44,318.15c.66.03,1.34-.06,2,0,2.24,7.53-4.21,15.06-11.6,15.94-9.73,1.16-16.31-8.85-6.4-13.93-.7,1.8-2.82,1.29-3.1,3.48-1.32,10.43,8.65,10.78,15.42,6.35,5.08-3.32,3.61-6.34,3.67-11.83Z"/><path class="cls-3" d="M681.44,401.15c.39.61-.99,2.54,1.49,2,.91-4.51,17.5-10.74,18.55-6.33l-.04,11.34c-7.47-1.03-15.59,2.1-19,9-4.85,9.78-.52,28.85-1.99,40.01h-13.01v-60.01l11.38-.07c.48,1.94,1.89,2.93,2.62,4.07Z"/><polygon class="cls-13" points="562.44 371.15 562.44 457.15 548.44 457.15 548.44 371.65 549.9 370.39 562.44 371.15"/><rect class="cls-13" x="575.44" y="369.15" width="14" height="88"/><path class="cls-24" d="M574.44,442.15c-1.68-1.86-1.68-7.14,0-9,0,2.99-.02,6.01,0,9Z"/><path class="cls-14" d="M763.44,333.15c6.48-1.09,5.65-2.28,10.48-5.99l9.46,5.59c-6.09,14.14-34.95,15.18-43.93,3.9-10.1-12.69-10.5-42.53,4.52-51.48,8.71-5.18,20.65-5.26,29.7-.75,4.78,2.38,5.27,5.48,8.77,8.73,2.71,7.76,3.61,14.74,3.01,23.01l-37.38-.05c-1.23.25-.43,1.53-.63,2.04-2.86,7.25,6.34,15.77,13.68,15.96,1.51.04,2.03-.91,2.32-.96ZM747.44,307.15h21.5c3.72,0,1.34-14.1-10-14.1-7.72,0-12.66,6.64-11.5,14.1Z"/><path class="cls-7" d="M166.44,309.65c1.19,7.63,11.76,19.97,15.81,27.19,14.38,25.67,20.89,58.39.17,82.78-27.74,32.64-73.48-15.25-87.14-40.8-14.47-27.06-16.06-57.86-6.54-86.88,1.04-3.16,4.61-13.27,6.66-15.12,1.1-.99,1.68-.72,3.04-.66-8.74,36.28-3.01,75.22,16.58,106.92,11.87,19.21,42.51,54.04,63.42,25.58,5.26-7.16,7.48-20.3,7.04-29.04-1.56-30.72-30.19-50.19-28.07-82.99.2-3.08,2.96-20.97,8.02-17.45-.25.96,1.02,2.13,1.02,2.49,0,7.98-1.13,20.75,0,28Z"/><path class="cls-7" d="M243.2,134.37c16.68-2.47,18.22,20.12-1.26,21.79s-15.94-19.24,1.26-21.79Z"/><path class="cls-7" d="M322.16,175.36c4.83-1.09,10.79.85,11.29,6.27-2.79,3.79-5.83-1.41-9.29-.35-2.76.79-3.86,9.96-8.77,6.44-4.01-2.87,2.66-11.43,6.78-12.36Z"/><path class="cls-7" d="M362.45,180.15c-4.95-1.9-7.39,5.73-11,1.49l6.54-6.53c2.88-.28,4.94,2.32,4.46,5.05Z"/><path class="cls-12" d="M503.44,446.15c-8.99-12.97,7.01-15.17,17-14,2.38,11.62-7.27,14.59-17,14Z"/><path class="cls-15" d="M747.44,307.15c-1.16-7.45,3.78-14.1,11.5-14.1,11.34,0,13.72,14.1,10,14.1h-21.5Z"/></svg>