<?xml version="1.0" encoding="UTF-8"?>
<svg id="Layer_1" xmlns="http://www.w3.org/2000/svg" version="1.1" viewBox="0 0 1024 1024">
  <!-- Generator: Adobe Illustrator 29.4.0, SVG Export Plug-In . SVG Version: 2.1.0 Build 152)  -->
  <defs>
    <style>
      .st0 {
        fill: #014652;
      }

      .st1 {
        fill: #3a8d93;
      }

      .st2 {
        fill: #0b2d3a;
      }

      .st3 {
        fill: #014550;
      }

      .st4 {
        fill: #092431;
      }

      .st5 {
        fill: #113644;
      }

      .st6 {
        fill: #072736;
      }

      .st7 {
        fill: #227c85;
      }

      .st8 {
        fill: #388b91;
      }

      .st9 {
        fill: #0d323f;
      }
    </style>
  </defs>
  <path class="st0" d="M242,221c44.3-36.4,118-36,162,1,3.6,3,6.9,6.5,10,10,5.9,6.6,13.3,17.6,16.9,25.6s5.5,19.8,9.1,29.4c0,.3,0,.7,0,1l1,1.4c18,5.2,25.8,24.9,25.6,42.3s-2.7,14.1-2.4,15.7,8.2,9.2,9.8,11.6c14.5,22.2,17.4,60.6-9,75-2.3.9-5.2,3-5.6,3-2.7,0-4.1-1.9-8.4,0s-4.6,4.8-7.1,6.4c-6.2,4.2-13.7,6.7-19.7,11,0,.3.7.5.7.5,0,1,0,2,0,3s-1.1.9-1,2.4c.7,9.2,13.6,23.8,17.1,32.6l.9-1c2,.5,2.1,2.8,3,4-2.2.6.2,2.8.8,3.7,12.4,20.6,14.6,30,13.2,54.3,0,.3,0,.7,0,1-3.8,11.7-13.2,34.5-26.7,36.8s-12,.7-15.3-.8c-6.8-3.1-10.4-27.4-13.3-35.2-3.1-8.8-8.5-19.1-13.7-26.8s-2.7-6.5-5-4.5l-19,37.5c-4.2,6.7-31.2,47.1-36,48s.1-1.2-1-1l-1,3c-.3.4-.7.7-1,1-2,0-2.8,1.2-4,2.5-7.6,8.3-15.3,16.3-23,24.5-10.2,9.7-21.5,20.3-33,30l-7.6,4.9-1,3.1c31,24.5,74.2,39.8,85.3,81.8.5,1.7-.6,3.8,2.3,3.2,1.5,9.7.8,19.8-6,27-16.5,17.7-29.3,16.2-50.8,22.7-20.1,6.2-36.3,16.5-57.7,19.3s-4.1-1.3-3.5,2c-6.9.7-11.1.7-18,0l-27-8.5-17-9.5c-2.3-2-6.8-6.6-9-9-3.3-7.3-8.4-13.5-11.5-21-6.1-15-7.3-32.4-6.6-48.5.9-21.5,8.8-38-4-57.5-6.3-15.2-13.6-27.6-19-44s-9-29.2-11-44-1.8-28.1-2-41.5.6-4.4-1-5.5c0-.7,0-1.3,0-2,3.1.6,1.8-1.6,2-3.5,2.5-34,12.7-67.4,28.6-97.4,1.9-3.6,5.5-6.6,5.4-11.1l6-10c2.6-.7,4.8-4.8,6.4-7.1,3.6-5,7-10.2,10.6-15.2l22.6-26.7c-2.4-7.8-7.1-14.9-8.6-23-3.7-19.2,1.2-38.9,14-53,2.9-1.8,8.5-3.5,9-7,1.2-.6,3.5-.3,4.5-2,1-2.5.8-5.5,1.5-8,2.7.6,1.9-1.4,2.5-3,5.2-14.7,11.4-29,21.5-41s9.5-10.3,14-14ZM309,217c-2,.1-4-.2-6,0-21.3,2-44.6,14.8-58,31.5s-2.4,2.3-2,4.5c-4.1,5.3-5.1,7.1-8,13-2.4-.5-2.1,1.2-2.8,2.6-1.4,2.7-9.5,17.2-3.8,17.3s3.6-1.1,6.1-1c5.7.3,12.9,4.9,16.5,9.1,19.9,22.8,13.8,82.3-17.7,93.8s-8.9,1.7-13.3,3.2c-3.1-.6-6.6-.5-9-1s-6.1-1.9-9-3.5-8.8-7.1-11-6.1c-34.2,34.3-61.8,77.8-72.5,125.5-12.6,56-7.1,109.2,20.3,159.7,10.8,19.9,16.5,21.2,15.2,46.9-1.9,38.3-11.3,76.1,27.6,101.3s64.1,5.4,98.8-6.8,51.8-9.2,55.3-32.7c4.3-29.4-34.5-55.7-56.7-67.8-17.1-9.3-36.1-18-55-22.5l.5-3c72.1-54.9,147.2-123.6,164.5-217-34.8-.6-74.3-20.3-76-59,1.6,0,2.3-.4,3.5,1s4.6,11.7,6.7,15.3c20.7,34.3,77.4,38.7,109.8,20.2,4.8-2.7,14.7-8.9,3.7-10.3-9.4,3.4-18.3,8.5-28,11.1-15.2,4.1-29.7,5.3-44.5-1.1s-26.6-22.3-24.1-39.4,2.9-11.2,6.7-11.8v17.5c0,7.5,14.2,21,21,24,25.1,10.9,43-3,65-10,14.7-4.7,18.8,12.2,33,1,23-18,5.7-59.9-12-76s-23.4-14.9-24.6-19.4-.4-1.9,1.1-3l6.5,4c-1.4-6.8-5.9-13-10-18.5-35.5-46.5-112.3-55.7-160-23.1-1.4,1-3.1,1-3,3.5h-1c-.1-.3.1-.7,0-1-1.3-2.4-2-3.9-4-6,12.8-8.7,28.8-16.4,44-20,24.3-5.8,54.5-3.4,78,5s12.9,5.3,17.7,7.8,11.1,8.1,16.3,10.2.5,2.4,1.3-.3c1.5-5.9-2.8-13.5-5.3-18.7-6.2-13.1-15.5-25.6-28-33-8.7-6.9-26.9-17.1-38-15s-.7,0-1,0v-1c-8.7-3.5-21-3.6-30.6-3.1-1.9.1-3.7-.2-4.4,2.1ZM203,372c6.2,3.4,8.4,4.4,14.5,0,15.6-11.1,18.6-55.9,5-69-3.9-3.8-11-4.8-14.5,0,19.7,9.9,16.5,52.6,1,64.5-2,1.5-2.9,1.5-4.6,2.4s-1.9-.5-1.4,2.1Z"/>
  <path class="st5" d="M405,222h-1c-44-37-117.7-37.4-162-1h-1c45.1-39.4,119-38.6,164,1Z"/>
  <path class="st5" d="M135,680c12.8,19.5,4.9,36,4,57.5-.7,16.1.4,33.5,6.6,48.5s8.2,13.8,11.5,21c-17.1-18.6-21-43.9-20-68.5s7.2-36.4-2-58.5Z"/>
  <path class="st9" d="M340,790c1.8.2-.8,2.8-1.2,3.3-12.9,16.2-41.4,17.8-60.3,24.7-19.2,6.9-28.8,13.9-50.5,16-.6-3.2,1.6-1.7,3.5-2,21.5-2.8,37.6-13.2,57.7-19.3,21.5-6.6,34.3-5.1,50.8-22.7Z"/>
  <path class="st9" d="M138,431c.1,4.5-3.5,7.5-5.4,11.1-15.9,30-26.1,63.4-28.6,97.4s1.1,4-2,3.5c2.7-39.6,14.4-78.6,36-112Z"/>
  <path class="st2" d="M417,591v1c-10.3-5.5-10.4-23-14-33.5-2.8-8.2-9.6-22.1-14-29.5h1c5.3,7.7,10.6,18,13.7,26.8,2.8,7.8,6.5,32.1,13.3,35.2Z"/>
  <path class="st2" d="M475,359c14.3,22.5,20.1,62.8-10,75,26.4-14.4,23.5-52.8,9-75h1Z"/>
  <path class="st9" d="M440,288c25.5,6.6,32.3,36.4,26.2,59.3.2,1.7,7.3,9.4,8.8,11.7h-1c-1.6-2.4-9.4-10-9.8-11.6s2.3-12.1,2.4-15.7c.2-17.4-7.5-37-25.6-42.3l-1-1.4Z"/>
  <path class="st2" d="M105,592h-1c-2.3-17.3-3-29.5-2-47,1.7,1,1,3.8,1,5.5.1,13.5.2,28.2,2,41.5Z"/>
  <path class="st2" d="M459,554c1.4-24.3-.9-33.7-13.2-54.3-.5-.9-2.9-3.1-.8-3.7,12,16.5,17.7,32.9,16,53.5-.1,1.8-.3,3.4-2,4.5Z"/>
  <path class="st2" d="M415,232c16.2,17.7,21.3,31.3,25,55-3.7-9.5-4.9-20-9.1-29.4s-11-19-16.9-25.6h1Z"/>
  <path class="st6" d="M189,296c-12.8,14.1-17.7,33.8-14,53h-1c-3.5-17.6-1.3-42.5,15-53,2.8-3.1,4.6-4.7,9-7-.5,3.5-6.1,5.2-9,7Z"/>
  <path class="st9" d="M116,636l-1,1c-5.5-16.4-8.7-27.6-11-45h1c2,14.8,6.3,29.8,11,44Z"/>
  <path class="st6" d="M417,592v-1c3.2,1.5,11.7,1.4,15.3.8,13.6-2.3,23-25.1,26.7-36.8-.4,9.6-6.1,21.1-12.6,28.9s-19,13.6-29.4,8.1Z"/>
  <path class="st2" d="M210,834c-17.9-1.8-30.4-6.2-44-18l17,9.5,27,8.5Z"/>
  <path class="st2" d="M228,235c-10.1,12-16.4,26.3-21.5,41-.6,1.6.2,3.5-2.5,3,5.3-18.4,11.3-30.7,24-45v1Z"/>
  <path class="st2" d="M135,680c-10.2-15.5-14.1-25.4-20-43l1-1c5.4,16.4,12.7,28.8,19,44Z"/>
  <path class="st2" d="M442,492l-.9,1c-3.5-8.8-16.4-23.4-17.1-32.6s1-2.2,1-2.4l17,34Z"/>
  <path class="st2" d="M267,670c-2.1,1.8-4.2,3.5-6.5,5v3c7.4,5,14.6,10.6,21.9,15.6,25.7,17.5,58.3,34.9,63.6,69.4-2.9.6-1.8-1.4-2.3-3.2-11.1-42-54.3-57.3-85.3-81.8l1-3.1,7.6-4.9Z"/>
  <path class="st9" d="M175,349c1.6,8.1,6.3,15.2,8.6,23l-22.6,26.7c-3.6,5-7,10.2-10.6,15.2s-3.8,6.3-6.4,7.1c7.6-12.1,16-23.7,26-33.6,1.8-5,13-12.2,11.8-17.7s-5.1-9-6.3-12.8-1-5.2-1.5-8h1Z"/>
  <path class="st6" d="M390,529h-1c-.3-.6-2.9-3.9-4-3l-7.7,17.7c-2.7,1.6-2.4,4-3.7,6.3-2.4,4.1-5.1,8-7.6,11.9l19-37.5c2.4-1.9,4.2,3.3,5,4.5Z"/>
  <path class="st4" d="M451,437c-5.7,9.1-16.4,13.9-26,18,0,0-.8-.3-.7-.5,6-4.3,13.4-6.8,19.7-11s4.5-5.3,7.1-6.4Z"/>
  <path class="st2" d="M327,613c-7.5,9.9-18.1,18.5-27,27,7.7-8.1,15.4-16.2,23-24.5s2-2.5,4-2.5Z"/>
  <path class="st4" d="M228,235v-1c4.1-4.6,8.4-8.9,13-13h1c-4.5,3.7-10.2,9.5-14,14Z"/>
  <path class="st4" d="M405,222c3.6,3.2,6.8,6.4,10,10h-1c-3.1-3.5-6.4-7-10-10h1Z"/>
  <path class="st2" d="M330,610c-.3,1.1-1.5,1.4-2,2l1-3c1.1-.2.9,1,1,1Z"/>
  <path class="st8" d="M264,290c-.2-2.5,1.5-2.5,3-3.5,47.7-32.6,124.4-23.4,160,23.1,4.2,5.4,8.6,11.7,10,18.5l-6.5-4c-1.5,1.2-1.6,1.3-1.1,3,1.2,4.5,19.7,15,24.6,19.4,17.7,16.1,35,58,12,76-14.2,11.2-18.3-5.7-33-1-22,7-39.9,20.9-65,10s-21-16.5-21-24v-17.5c-3.9.5-6.2,8.4-6.7,11.8-2.5,17.1,9,32.8,24.1,39.4s29.2,5.2,44.5,1.1c9.7-2.6,18.6-7.7,28-11.1,10.9,1.4,1.1,7.6-3.7,10.3-32.4,18.5-89.1,14-109.8-20.2-2.2-3.6-5.4-13.7-6.7-15.3s-1.9-1.1-3.5-1c1.7,38.7,41.2,58.4,76,59-17.4,93.4-92.4,162-164.5,217l-.5,3c19,4.5,37.9,13.2,55,22.5,22.2,12.1,61,38.4,56.7,67.8-3.4,23.5-36.8,26.2-55.3,32.7-34.7,12.3-62,30.7-98.8,6.8s-29.6-63-27.6-101.3-4.4-27-15.2-46.9c-27.5-50.5-32.9-103.7-20.3-159.7,10.7-47.7,38.3-91.2,72.5-125.5,2.2-1.1,8.2,4.6,11,6.1s5.7,2.8,9,3.5c-1.1,5.3,4.6,1.2,8.3,2s3.9,3.6,4.3,3.7c2.2.5,11.6.6,14,.3,4.9-.6,14.6-4,16.5-9,5.3-3.7,7.4-8,11-13s2.3-1.4,4.2-5.3c8.9-18.7,8.7-46.7,3-66.3-.4-1.4-2-1.3-2.1-2.1-1-4.9-.6-6.9-6-10.3ZM344.8,326.2c-17.2,2.6-20.9,23.5-1.3,21.8s17.9-24.3,1.3-21.8ZM423.7,367.2c-4.1.9-10.8,9.5-6.8,12.4s6-5.7,8.8-6.4c3.5-1.1,6.5,4.1,9.3.4-.5-5.4-6.5-7.4-11.3-6.3ZM464,372c.5-2.7-1.6-5.3-4.5-5l-6.5,6.5c3.6,4.2,6.1-3.4,11-1.5ZM268,501.5c-1.1-7.2,0-20,0-28s-1.3-1.5-1-2.5c-5.1-3.5-7.8,14.4-8,17.4-2.1,32.8,26.5,52.3,28.1,83s-1.8,21.9-7,29c-20.9,28.5-51.5-6.4-63.4-25.6-19.6-31.7-25.3-70.6-16.6-106.9-1.4,0-1.9-.3-3,.7-2.1,1.9-5.6,12-6.7,15.1-9.5,29-7.9,59.8,6.5,86.9,13.7,25.5,59.4,73.4,87.1,40.8,20.7-24.4,14.2-57.1-.2-82.8s-14.6-19.6-15.8-27.2Z"/>
  <path class="st1" d="M203,372c-.5-2.6.4-1.5,1.4-2.1,1.7-.9,2.6-.9,4.6-2.4,15.5-11.9,18.7-54.6-1-64.5,3.5-4.8,10.6-3.8,14.5,0,13.6,13.1,10.6,57.9-5,69s-8.3,3.4-14.5,0Z"/>
  <path class="st7" d="M264,290c5.5,3.4,5,5.4,6,10.3s1.7.6,2.1,2.1c5.7,19.6,5.9,47.6-3,66.3s-3.4,4.2-4.2,5.3c2.4-6.7,5.8-13.1,7.3-20.2,5.3-24.1,1.8-42.5-9.3-63.8h1Z"/>
  <path class="st6" d="M381,267v1c-23.5-8.4-53.7-10.8-78-5v-1c27.8-6.3,51.3-4.7,78,5Z"/>
  <path class="st5" d="M252,294c24,28.7,12.7,93.5-30,98-.6-.2-1.4-.9-2-1,4.4-1.5,8.9-1.6,13.3-3.2,31.5-11.5,37.6-71,17.7-93.8h1Z"/>
  <path class="st7" d="M254,387c-1.8,5-11.5,8.4-16.5,9s-11.8.2-14-.3-4-3.6-4.3-3.7c-3.7-.8-9.4,3.2-8.3-2,2.4.5,5.9.4,9,1s1.4.8,2,1c10.3,2.5,23.1,1.3,32-5Z"/>
  <path class="st9" d="M383,234c-6.5-3.9-15.6-8.2-22.8-10.7s-10.1-3-15.2-4.3c11.1-2.1,29.3,8.1,38,15Z"/>
  <path class="st2" d="M235,266c-1.2,2.5-8.3,16.7-7,18,9.7-3,18,2.9,24,10h-1c-3.7-4.2-10.8-8.8-16.5-9.1s-4.4,1-6.1,1c-5.7,0,2.3-14.6,3.8-17.3s.4-3.2,2.8-2.6Z"/>
  <path class="st5" d="M303,217c-7.1,3.2-15,4.4-22.3,7.2-14.9,5.9-28.1,16.2-37.7,28.8-.4-2.3.8-3.1,2-4.5,13.4-16.6,36.8-29.5,58-31.5Z"/>
  <path class="st2" d="M303,262v1c-15.2,3.6-31.2,11.3-44,20,2,2.1,2.7,3.6,4,6l-4.5-5c-.5-1.1.4-2.4,1.2-3.1,10.5-8.7,30-16,43.3-18.9Z"/>
  <path class="st4" d="M344,218h-1c-12-2-22.1-1.8-34-1,.7-2.3,2.6-2,4.4-2.1,9.5-.5,21.8-.4,30.6,3.1Z"/>
  <path class="st5" d="M411,267c2.5,5.2,6.8,12.8,5.3,18.7s-.9.4-1.3.3c1.2-1.1,0-1.7,0-2-.8-5.6-2.7-11.8-5-17h1Z"/>
  <path class="st2" d="M381,267c8.3,3,17.3,6,23.8,11.9l10.2,5.1c0,.3,1.2.9,0,2-5.2-2.1-11.2-7.4-16.3-10.2s-12.6-6-17.7-7.8v-1Z"/>
  <path class="st6" d="M383,234c12.5,7.4,21.8,19.9,28,33h-1c-5.8-13-16-24.2-27-33Z"/>
  <path class="st9" d="M344,219c-.7,0-1.1-.3-1-1h1v1Z"/>
  <path class="st3" d="M268,501.5c1.2,7.6,11.8,20,15.8,27.2,14.4,25.7,20.9,58.4.2,82.8-27.7,32.6-73.5-15.3-87.1-40.8-14.5-27.1-16.1-57.9-6.5-86.9s4.6-13.3,6.7-15.1,1.7-.7,3-.7c-8.7,36.3-3,75.2,16.6,106.9s42.5,54,63.4,25.6c5.3-7.2,7.5-20.3,7-29-1.6-30.7-30.2-50.2-28.1-83,.2-3.1,3-21,8-17.4-.2,1,1,2.1,1,2.5,0,8-1.1,20.8,0,28Z"/>
  <path class="st3" d="M344.8,326.2c16.7-2.5,18.2,20.1-1.3,21.8s-15.9-19.2,1.3-21.8Z"/>
  <path class="st3" d="M423.7,367.2c4.8-1.1,10.8.8,11.3,6.3-2.8,3.8-5.8-1.4-9.3-.4-2.8.8-3.9,10-8.8,6.4s2.7-11.4,6.8-12.4Z"/>
  <path class="st3" d="M464,372c-4.9-1.9-7.4,5.7-11,1.5l6.5-6.5c2.9-.3,4.9,2.3,4.5,5Z"/>
  <g>
    <path class="st8" d="M547,513.6l27.7-55.7h15.5v96.2h-15.6v-64.4l-22,45.8h-11.4l-21.6-45.4v64h-15.6v-96.2h15.3l27.7,55.7Z"/>
    <path class="st8" d="M631.2,512.9h15.1v-5.9c0-8.8-3.3-11.1-13.8-11.1s-11.3.8-14.6,6.3l-10.7-7.5c5-8.2,12.5-11.6,26.3-11.6s27.5,5.6,27.5,24.1v46.8h-14.6v-6.4c-3.3,5.4-7.7,7.7-16.2,7.7-15.3,0-24.8-7.8-24.8-21.7s11-20.6,25.9-20.6ZM646.3,524.3h-13.9c-8.8,0-12.4,3.1-12.4,9.2s4.7,9.1,11.8,9.1,14.5-2.8,14.5-14.9v-3.3Z"/>
    <path class="st8" d="M676.8,484.3h14.6v6.3c3.1-4.2,8.1-7.5,17.3-7.5,14.4,0,25.4,7.2,25.4,27.3v43.6h-14.8v-41.9c0-12.3-5.6-15.7-13.2-15.7s-14.4,6.3-14.4,15.6v42.1h-14.9v-69.7Z"/>
    <path class="st8" d="M772.5,512.9h15.1v-5.9c0-8.8-3.3-11.1-13.8-11.1s-11.3.8-14.6,6.3l-10.7-7.5c5-8.2,12.5-11.6,26.3-11.6s27.5,5.6,27.5,24.1v46.8h-14.6v-6.4c-3.3,5.4-7.7,7.7-16.2,7.7-15.3,0-24.8-7.8-24.8-21.7s11-20.6,25.9-20.6ZM787.6,524.3h-13.9c-8.8,0-12.4,3.1-12.4,9.2s4.7,9.1,11.8,9.1,14.5-2.8,14.5-14.9v-3.3Z"/>
    <path class="st8" d="M812.5,484.3h8.9v-15.3h14.8v15.3h14.8v12.8h-14.8v31.9c0,8.1,1.3,11.6,9.1,11.6h5.7v13.4h-6.8c-16.7,0-22.7-5.7-22.7-22.2v-34.7h-8.9v-12.8Z"/>
    <path class="st8" d="M915.8,543.4c-4.9,8.5-12.7,11.8-24.9,11.8-19.9,0-30.5-13-30.5-31.5v-9.5c0-20.5,10-31.2,28.3-31.2s28.2,11.4,28.2,32.1v7.7h-41.7v.3c0,10.9,4.2,19.4,15.2,19.4s11.6-2.5,14.4-6.8l11.1,7.8ZM875.2,511.4h26.6c-.6-10.2-4.7-15.3-13.2-15.3s-12.7,5.9-13.4,15.3Z"/>
    <path class="st8" d="M983.7,543.4c-4.9,8.5-12.7,11.8-24.9,11.8-19.9,0-30.5-13-30.5-31.5v-9.5c0-20.5,10-31.2,28.3-31.2s28.2,11.4,28.2,32.1v7.7h-41.7v.3c0,10.9,4.2,19.4,15.2,19.4s11.6-2.5,14.4-6.8l11.1,7.8ZM943.1,511.4h26.6c-.6-10.2-4.7-15.3-13.2-15.3s-12.7,5.9-13.4,15.3Z"/>
    <path class="st8" d="M555.4,614.1c-2.5-11.7-8.8-17-19.4-17s-19.8,8.4-19.8,29.1v12.3c0,20.5,7,29.1,19.8,29.1s16.9-5.3,19.4-17h15.5c-3.2,21.6-15.7,31.1-34.8,31.1s-36-13-36-43.2v-12.3c0-30.2,14.5-43.2,36-43.2s31.8,10.2,35,31.1h-15.6Z"/>
    <path class="st8" d="M604.9,639.3h15.1v-5.9c0-8.8-3.3-11.1-13.8-11.1s-11.3.8-14.6,6.3l-10.7-7.5c5-8.2,12.5-11.6,26.3-11.6s27.5,5.6,27.5,24.1v46.8h-14.6v-6.4c-3.3,5.4-7.7,7.7-16.2,7.7-15.3,0-24.8-7.8-24.8-21.7s11-20.6,25.9-20.6ZM619.9,650.7h-13.9c-8.8,0-12.4,3.1-12.4,9.2s4.7,9.1,11.8,9.1,14.5-2.8,14.5-14.9v-3.3Z"/>
    <path class="st8" d="M650.5,584.2h14.9v70.8c0,7.5,1.4,12.3,10.6,12.3v13.1c-18.1,0-25.5-5.9-25.5-21.9v-74.3Z"/>
    <path class="st8" d="M689.8,584.2h14.9v70.8c0,7.5,1.4,12.3,10.6,12.3v13.1c-18.1,0-25.5-5.9-25.5-21.9v-74.3Z"/>
    <path class="st8" d="M781.6,669.8c-4.9,8.5-12.7,11.8-24.9,11.8-19.9,0-30.5-13-30.5-31.5v-9.5c0-20.5,10-31.2,28.3-31.2s28.2,11.4,28.2,32.1v7.7h-41.7v.3c0,10.9,4.2,19.4,15.2,19.4s11.6-2.5,14.4-6.8l11.1,7.8ZM741,637.8h26.6c-.6-10.2-4.7-15.3-13.2-15.3s-12.7,5.9-13.4,15.3Z"/>
    <path class="st8" d="M834.7,628.1c-2.2-3.2-5.3-5.4-10-5.4-7.5,0-12.8,5.6-12.8,15.6v42.1h-14.9v-69.7h14.6v6.3c2.6-4,7.4-7.5,15.6-7.5s15.1,3.5,19.4,10.3l-11.8,8.4Z"/>
  </g>
</svg>